<?xml version="1.0" standalone="no"?>
<!DOCTYPE svg PUBLIC "-//W3C//DTD SVG 20010904//EN"
 "http://www.w3.org/TR/2001/REC-SVG-20010904/DTD/svg10.dtd">
<svg version="1.0" xmlns="http://www.w3.org/2000/svg"
 width="512.000000pt" height="512.000000pt" viewBox="0 0 512.000000 512.000000"
 preserveAspectRatio="xMidYMid meet">
<metadata>
Created by potrace 1.14, written by Peter Selinger 2001-2017
</metadata>
<g transform="translate(0.000000,512.000000) scale(0.100000,-0.100000)"
fill="#000000" stroke="none">
<path d="M1715 3406 c-93 -41 -140 -157 -101 -249 47 -110 190 -149 290 -79
55 38 79 84 79 153 0 68 -27 118 -85 156 -45 31 -135 39 -183 19z"/>
<path d="M3717 3410 c-142 -45 -177 -236 -60 -325 99 -76 241 -47 293 60 60
123 -18 261 -152 271 -29 2 -66 -1 -81 -6z"/>
<path d="M1030 3063 l0 -322 -50 34 c-85 57 -153 78 -260 79 -52 0 -108 -2
-125 -6 -196 -41 -357 -199 -414 -405 -27 -98 -23 -249 9 -348 72 -226 278
-382 510 -387 41 0 94 2 116 6 51 8 130 45 171 80 17 14 33 26 36 26 3 0 7
-21 9 -46 l3 -46 85 0 c47 0 110 1 140 1 l55 1 -2 812 c0 447 -2 820 -2 828
-1 13 -23 15 -141 15 l-140 0 0 -322z m-169 -507 c42 -18 103 -76 126 -120 60
-115 43 -268 -41 -363 -50 -57 -105 -85 -181 -90 -182 -14 -332 157 -303 345
30 195 220 304 399 228z"/>
<path d="M3017 3375 c-2 -5 -3 -150 -3 -322 1 -206 -2 -309 -9 -305 -5 3 -24
16 -41 28 -128 97 -347 108 -509 27 -192 -95 -307 -296 -307 -533 1 -177 95
-365 232 -461 56 -39 93 -56 166 -79 157 -47 317 -25 424 60 21 17 40 30 42
30 3 0 4 -20 3 -45 -2 -44 -2 -45 29 -46 38 -1 238 -1 249 0 4 1 7 373 7 829
l0 827 -140 0 c-87 0 -141 -3 -143 -10z m-159 -824 c87 -44 151 -155 152 -262
0 -57 -22 -150 -43 -177 -40 -52 -98 -99 -142 -115 -196 -69 -395 94 -378 311
10 130 112 249 228 268 22 3 41 7 43 8 8 8 105 -15 140 -33z"/>
<path d="M4363 3035 c2 -189 1 -195 -18 -196 -11 0 -60 -1 -110 -2 l-90 -2 -1
-122 c-2 -141 -12 -130 119 -128 81 1 87 0 88 -19 0 -12 2 -127 3 -256 4 -254
11 -311 52 -392 44 -88 154 -174 250 -193 102 -21 191 -24 274 -12 l25 4 3
129 3 129 -103 0 c-116 0 -150 13 -184 69 -17 28 -19 54 -19 286 l0 255 153 0
152 0 0 126 0 126 -122 1 c-68 0 -138 1 -155 1 l-33 1 0 195 0 195 -144 0
-145 0 2 -195z"/>
<path d="M1649 2836 c-1 -1 -3 -250 -3 -553 l-2 -553 148 0 148 0 0 110 c0 61
0 274 0 475 0 201 0 401 0 444 l0 79 -145 0 c-80 -1 -146 -1 -146 -2z"/>
<path d="M3630 2284 l0 -554 149 0 150 0 0 550 0 550 -22 4 c-12 3 -79 4 -149
4 l-128 0 0 -554z"/>
</g>
</svg>
